<mxfile host="app.diagrams.net" agent="Mozilla/5.0 (Windows NT 10.0; Win64; x64) AppleWebKit/537.36 (KHTML, like Gecko) Chrome/128.0.0.0 Safari/537.36 OPR/114.0.0.0" version="24.7.12" pages="2">
  <diagram name="Page-1" id="VC67NxhJMN484GX3z8SK">
    <mxGraphModel dx="1236" dy="1727" grid="1" gridSize="10" guides="1" tooltips="1" connect="1" arrows="1" fold="1" page="1" pageScale="1" pageWidth="827" pageHeight="1169" math="0" shadow="0">
      <root>
        <mxCell id="0" />
        <mxCell id="1" parent="0" />
        <mxCell id="Avy0JTanbF8QbbRovR7r-4" value="Model 1" style="ellipse;whiteSpace=wrap;html=1;" vertex="1" parent="1">
          <mxGeometry x="195" y="101" width="70" height="50" as="geometry" />
        </mxCell>
        <mxCell id="Avy0JTanbF8QbbRovR7r-5" value="Model 2" style="ellipse;whiteSpace=wrap;html=1;" vertex="1" parent="1">
          <mxGeometry x="195" y="156" width="70" height="50" as="geometry" />
        </mxCell>
        <mxCell id="Avy0JTanbF8QbbRovR7r-6" value="Model N" style="ellipse;whiteSpace=wrap;html=1;" vertex="1" parent="1">
          <mxGeometry x="195" y="236" width="70" height="50" as="geometry" />
        </mxCell>
        <mxCell id="Avy0JTanbF8QbbRovR7r-19" value="" style="whiteSpace=wrap;html=1;aspect=fixed;" vertex="1" parent="1">
          <mxGeometry x="55" y="137" width="50" height="50" as="geometry" />
        </mxCell>
        <mxCell id="Avy0JTanbF8QbbRovR7r-20" value="" style="whiteSpace=wrap;html=1;aspect=fixed;" vertex="1" parent="1">
          <mxGeometry x="65" y="147" width="50" height="50" as="geometry" />
        </mxCell>
        <mxCell id="Avy0JTanbF8QbbRovR7r-34" style="edgeStyle=orthogonalEdgeStyle;rounded=0;orthogonalLoop=1;jettySize=auto;html=1;entryX=0;entryY=0.5;entryDx=0;entryDy=0;" edge="1" parent="1" source="Avy0JTanbF8QbbRovR7r-21" target="Avy0JTanbF8QbbRovR7r-5">
          <mxGeometry relative="1" as="geometry" />
        </mxCell>
        <mxCell id="Avy0JTanbF8QbbRovR7r-21" value="Image" style="whiteSpace=wrap;html=1;aspect=fixed;" vertex="1" parent="1">
          <mxGeometry x="75" y="156" width="50" height="50" as="geometry" />
        </mxCell>
        <mxCell id="Avy0JTanbF8QbbRovR7r-28" value="" style="endArrow=classic;html=1;rounded=0;exitX=1;exitY=0.5;exitDx=0;exitDy=0;entryX=0;entryY=0.5;entryDx=0;entryDy=0;" edge="1" parent="1" source="Avy0JTanbF8QbbRovR7r-21" target="Avy0JTanbF8QbbRovR7r-4">
          <mxGeometry width="50" height="50" relative="1" as="geometry">
            <mxPoint x="155" y="169" as="sourcePoint" />
            <mxPoint x="205" y="119" as="targetPoint" />
          </mxGeometry>
        </mxCell>
        <mxCell id="Avy0JTanbF8QbbRovR7r-31" value="" style="endArrow=classic;html=1;rounded=0;exitX=1;exitY=0.5;exitDx=0;exitDy=0;entryX=0;entryY=0.5;entryDx=0;entryDy=0;" edge="1" parent="1" source="Avy0JTanbF8QbbRovR7r-21" target="Avy0JTanbF8QbbRovR7r-6">
          <mxGeometry width="50" height="50" relative="1" as="geometry">
            <mxPoint x="125" y="207" as="sourcePoint" />
            <mxPoint x="175" y="157" as="targetPoint" />
          </mxGeometry>
        </mxCell>
        <mxCell id="Avy0JTanbF8QbbRovR7r-32" value="" style="endArrow=none;dashed=1;html=1;dashPattern=1 3;strokeWidth=2;rounded=0;" edge="1" parent="1">
          <mxGeometry width="50" height="50" relative="1" as="geometry">
            <mxPoint x="230.09" y="231" as="sourcePoint" />
            <mxPoint x="229.69" y="209" as="targetPoint" />
          </mxGeometry>
        </mxCell>
        <mxCell id="Avy0JTanbF8QbbRovR7r-48" value="&lt;span style=&quot;color: rgba(0, 0, 0, 0); font-family: monospace; font-size: 0px; text-align: start; background-color: rgb(251, 251, 251);&quot;&gt;%3CmxGraphModel%3E%3Croot%3E%3CmxCell%20id%3D%220%22%2F%3E%3CmxCell%20id%3D%221%22%20parent%3D%220%22%2F%3E%3CmxCell%20id%3D%222%22%20value%3D%22%22%20style%3D%22whiteSpace%3Dwrap%3Bhtml%3D1%3Baspect%3Dfixed%3B%22%20vertex%3D%221%22%20parent%3D%221%22%3E%3CmxGeometry%20x%3D%22370%22%20y%3D%22139.5%22%20width%3D%2250%22%20height%3D%2250%22%20as%3D%22geometry%22%2F%3E%3C%2FmxCell%3E%3CmxCell%20id%3D%223%22%20value%3D%22%22%20style%3D%22whiteSpace%3Dwrap%3Bhtml%3D1%3Baspect%3Dfixed%3B%22%20vertex%3D%221%22%20parent%3D%221%22%3E%3CmxGeometry%20x%3D%22380%22%20y%3D%22149.5%22%20width%3D%2250%22%20height%3D%2250%22%20as%3D%22geometry%22%2F%3E%3C%2FmxCell%3E%3CmxCell%20id%3D%224%22%20value%3D%22%22%20style%3D%22whiteSpace%3Dwrap%3Bhtml%3D1%3Baspect%3Dfixed%3B%22%20vertex%3D%221%22%20parent%3D%221%22%3E%3CmxGeometry%20x%3D%22390%22%20y%3D%22158.5%22%20width%3D%2250%22%20height%3D%2250%22%20as%3D%22geometry%22%2F%3E%3C%2FmxCell%3E%3C%2Froot%3E%3C%2FmxGraphModel%3E&lt;/span&gt;" style="edgeLabel;html=1;align=center;verticalAlign=middle;resizable=0;points=[];" vertex="1" connectable="0" parent="Avy0JTanbF8QbbRovR7r-32">
          <mxGeometry x="0.3867" y="2" relative="1" as="geometry">
            <mxPoint as="offset" />
          </mxGeometry>
        </mxCell>
        <mxCell id="Avy0JTanbF8QbbRovR7r-35" value="" style="whiteSpace=wrap;html=1;aspect=fixed;" vertex="1" parent="1">
          <mxGeometry x="405" y="68" width="50" height="50" as="geometry" />
        </mxCell>
        <mxCell id="Avy0JTanbF8QbbRovR7r-36" value="" style="whiteSpace=wrap;html=1;aspect=fixed;" vertex="1" parent="1">
          <mxGeometry x="415" y="78" width="50" height="50" as="geometry" />
        </mxCell>
        <mxCell id="Avy0JTanbF8QbbRovR7r-37" value="Expla-&lt;div&gt;nation&lt;/div&gt;" style="whiteSpace=wrap;html=1;aspect=fixed;" vertex="1" parent="1">
          <mxGeometry x="425" y="87" width="50" height="50" as="geometry" />
        </mxCell>
        <mxCell id="Avy0JTanbF8QbbRovR7r-38" value="" style="whiteSpace=wrap;html=1;aspect=fixed;" vertex="1" parent="1">
          <mxGeometry x="405" y="146.5" width="50" height="50" as="geometry" />
        </mxCell>
        <mxCell id="Avy0JTanbF8QbbRovR7r-39" value="" style="whiteSpace=wrap;html=1;aspect=fixed;" vertex="1" parent="1">
          <mxGeometry x="415" y="156.5" width="50" height="50" as="geometry" />
        </mxCell>
        <mxCell id="Avy0JTanbF8QbbRovR7r-40" value="Expla-&lt;div&gt;nation&lt;/div&gt;" style="whiteSpace=wrap;html=1;aspect=fixed;" vertex="1" parent="1">
          <mxGeometry x="425" y="165.5" width="50" height="50" as="geometry" />
        </mxCell>
        <mxCell id="Avy0JTanbF8QbbRovR7r-41" value="" style="whiteSpace=wrap;html=1;aspect=fixed;" vertex="1" parent="1">
          <mxGeometry x="405" y="247" width="50" height="50" as="geometry" />
        </mxCell>
        <mxCell id="Avy0JTanbF8QbbRovR7r-42" value="" style="whiteSpace=wrap;html=1;aspect=fixed;" vertex="1" parent="1">
          <mxGeometry x="415" y="257" width="50" height="50" as="geometry" />
        </mxCell>
        <mxCell id="Avy0JTanbF8QbbRovR7r-43" value="Expla-&lt;div&gt;nation&lt;/div&gt;" style="whiteSpace=wrap;html=1;aspect=fixed;" vertex="1" parent="1">
          <mxGeometry x="425" y="266" width="50" height="50" as="geometry" />
        </mxCell>
        <mxCell id="Avy0JTanbF8QbbRovR7r-44" value="" style="endArrow=classic;html=1;rounded=0;exitX=1;exitY=0.5;exitDx=0;exitDy=0;entryX=0;entryY=0.5;entryDx=0;entryDy=0;" edge="1" parent="1" source="Avy0JTanbF8QbbRovR7r-6" target="Avy0JTanbF8QbbRovR7r-41">
          <mxGeometry width="50" height="50" relative="1" as="geometry">
            <mxPoint x="295" y="256" as="sourcePoint" />
            <mxPoint x="345" y="206" as="targetPoint" />
          </mxGeometry>
        </mxCell>
        <mxCell id="Avy0JTanbF8QbbRovR7r-46" value="" style="endArrow=classic;html=1;rounded=0;exitX=1;exitY=0.5;exitDx=0;exitDy=0;entryX=0;entryY=0.69;entryDx=0;entryDy=0;entryPerimeter=0;" edge="1" parent="1" source="Avy0JTanbF8QbbRovR7r-5" target="Avy0JTanbF8QbbRovR7r-38">
          <mxGeometry width="50" height="50" relative="1" as="geometry">
            <mxPoint x="265" y="206" as="sourcePoint" />
            <mxPoint x="315" y="156" as="targetPoint" />
          </mxGeometry>
        </mxCell>
        <mxCell id="Avy0JTanbF8QbbRovR7r-47" value="" style="endArrow=classic;html=1;rounded=0;exitX=1;exitY=0.5;exitDx=0;exitDy=0;entryX=0;entryY=0.75;entryDx=0;entryDy=0;" edge="1" parent="1" source="Avy0JTanbF8QbbRovR7r-4" target="Avy0JTanbF8QbbRovR7r-35">
          <mxGeometry width="50" height="50" relative="1" as="geometry">
            <mxPoint x="255" y="147" as="sourcePoint" />
            <mxPoint x="305" y="97" as="targetPoint" />
          </mxGeometry>
        </mxCell>
        <mxCell id="Avy0JTanbF8QbbRovR7r-49" value="" style="endArrow=none;dashed=1;html=1;dashPattern=1 3;strokeWidth=2;rounded=0;" edge="1" parent="1">
          <mxGeometry width="50" height="50" relative="1" as="geometry">
            <mxPoint x="440.20000000000005" y="240.5" as="sourcePoint" />
            <mxPoint x="439.8" y="218.5" as="targetPoint" />
          </mxGeometry>
        </mxCell>
        <mxCell id="Avy0JTanbF8QbbRovR7r-50" value="&lt;span style=&quot;color: rgba(0, 0, 0, 0); font-family: monospace; font-size: 0px; text-align: start; background-color: rgb(251, 251, 251);&quot;&gt;%3CmxGraphModel%3E%3Croot%3E%3CmxCell%20id%3D%220%22%2F%3E%3CmxCell%20id%3D%221%22%20parent%3D%220%22%2F%3E%3CmxCell%20id%3D%222%22%20value%3D%22%22%20style%3D%22whiteSpace%3Dwrap%3Bhtml%3D1%3Baspect%3Dfixed%3B%22%20vertex%3D%221%22%20parent%3D%221%22%3E%3CmxGeometry%20x%3D%22370%22%20y%3D%22139.5%22%20width%3D%2250%22%20height%3D%2250%22%20as%3D%22geometry%22%2F%3E%3C%2FmxCell%3E%3CmxCell%20id%3D%223%22%20value%3D%22%22%20style%3D%22whiteSpace%3Dwrap%3Bhtml%3D1%3Baspect%3Dfixed%3B%22%20vertex%3D%221%22%20parent%3D%221%22%3E%3CmxGeometry%20x%3D%22380%22%20y%3D%22149.5%22%20width%3D%2250%22%20height%3D%2250%22%20as%3D%22geometry%22%2F%3E%3C%2FmxCell%3E%3CmxCell%20id%3D%224%22%20value%3D%22%22%20style%3D%22whiteSpace%3Dwrap%3Bhtml%3D1%3Baspect%3Dfixed%3B%22%20vertex%3D%221%22%20parent%3D%221%22%3E%3CmxGeometry%20x%3D%22390%22%20y%3D%22158.5%22%20width%3D%2250%22%20height%3D%2250%22%20as%3D%22geometry%22%2F%3E%3C%2FmxCell%3E%3C%2Froot%3E%3C%2FmxGraphModel%3E&lt;/span&gt;" style="edgeLabel;html=1;align=center;verticalAlign=middle;resizable=0;points=[];" vertex="1" connectable="0" parent="Avy0JTanbF8QbbRovR7r-49">
          <mxGeometry x="0.3867" y="2" relative="1" as="geometry">
            <mxPoint as="offset" />
          </mxGeometry>
        </mxCell>
        <mxCell id="Avy0JTanbF8QbbRovR7r-54" value="Explanation method" style="rounded=1;whiteSpace=wrap;html=1;rotation=-90;" vertex="1" parent="1">
          <mxGeometry x="227.5" y="167" width="205" height="30" as="geometry" />
        </mxCell>
        <mxCell id="Avy0JTanbF8QbbRovR7r-62" value="" style="shape=curlyBracket;whiteSpace=wrap;html=1;rounded=1;labelPosition=left;verticalLabelPosition=middle;align=right;verticalAlign=middle;rotation=90;" vertex="1" parent="1">
          <mxGeometry x="80" y="13" width="20" height="74" as="geometry" />
        </mxCell>
        <mxCell id="Avy0JTanbF8QbbRovR7r-63" value="" style="shape=curlyBracket;whiteSpace=wrap;html=1;rounded=1;labelPosition=left;verticalLabelPosition=middle;align=right;verticalAlign=middle;rotation=90;" vertex="1" parent="1">
          <mxGeometry x="215" y="13" width="20" height="74" as="geometry" />
        </mxCell>
        <mxCell id="Avy0JTanbF8QbbRovR7r-64" value="" style="shape=curlyBracket;whiteSpace=wrap;html=1;rounded=1;labelPosition=left;verticalLabelPosition=middle;align=right;verticalAlign=middle;rotation=90;" vertex="1" parent="1">
          <mxGeometry x="420" y="13" width="20" height="74" as="geometry" />
        </mxCell>
        <mxCell id="Avy0JTanbF8QbbRovR7r-65" value="" style="shape=curlyBracket;whiteSpace=wrap;html=1;rounded=1;labelPosition=left;verticalLabelPosition=middle;align=right;verticalAlign=middle;rotation=90;" vertex="1" parent="1">
          <mxGeometry x="320" y="13" width="20" height="74" as="geometry" />
        </mxCell>
        <mxCell id="Avy0JTanbF8QbbRovR7r-67" value="Set of images" style="text;html=1;align=center;verticalAlign=middle;resizable=0;points=[];autosize=1;strokeColor=none;fillColor=none;" vertex="1" parent="1">
          <mxGeometry x="40" y="5" width="100" height="30" as="geometry" />
        </mxCell>
        <mxCell id="Avy0JTanbF8QbbRovR7r-68" value="Models" style="text;html=1;align=center;verticalAlign=middle;resizable=0;points=[];autosize=1;strokeColor=none;fillColor=none;" vertex="1" parent="1">
          <mxGeometry x="195" y="5" width="60" height="30" as="geometry" />
        </mxCell>
        <mxCell id="Avy0JTanbF8QbbRovR7r-69" value="Classify&lt;div&gt;&lt;span style=&quot;background-color: initial;&quot;&gt;and e&lt;/span&gt;&lt;span style=&quot;background-color: initial;&quot;&gt;xplain&lt;/span&gt;&lt;/div&gt;" style="text;html=1;align=center;verticalAlign=middle;resizable=0;points=[];autosize=1;strokeColor=none;fillColor=none;" vertex="1" parent="1">
          <mxGeometry x="290" width="80" height="40" as="geometry" />
        </mxCell>
        <mxCell id="Avy0JTanbF8QbbRovR7r-70" value="Explanations&lt;div&gt;for all images&lt;/div&gt;" style="text;html=1;align=center;verticalAlign=middle;resizable=0;points=[];autosize=1;strokeColor=none;fillColor=none;" vertex="1" parent="1">
          <mxGeometry x="385" width="90" height="40" as="geometry" />
        </mxCell>
        <mxCell id="Avy0JTanbF8QbbRovR7r-104" value="&lt;div&gt;&lt;b style=&quot;background-color: initial;&quot;&gt;&lt;font style=&quot;font-size: 18px;&quot;&gt;Computing explanations for all images and models&lt;/font&gt;&lt;/b&gt;&lt;br&gt;&lt;/div&gt;" style="text;html=1;align=center;verticalAlign=middle;resizable=0;points=[];autosize=1;strokeColor=none;fillColor=none;" vertex="1" parent="1">
          <mxGeometry x="35" y="-50" width="460" height="40" as="geometry" />
        </mxCell>
      </root>
    </mxGraphModel>
  </diagram>
  <diagram id="b_16lOMXdg7c8KFbppd8" name="Page-2">
    <mxGraphModel dx="1236" dy="558" grid="1" gridSize="10" guides="1" tooltips="1" connect="1" arrows="1" fold="1" page="1" pageScale="1" pageWidth="827" pageHeight="1169" math="0" shadow="0">
      <root>
        <mxCell id="0" />
        <mxCell id="1" parent="0" />
        <mxCell id="zSc9yGRD9UbhB6vsPNik-1" style="edgeStyle=orthogonalEdgeStyle;rounded=0;orthogonalLoop=1;jettySize=auto;html=1;entryX=0;entryY=0.5;entryDx=0;entryDy=0;" edge="1" parent="1" source="zSc9yGRD9UbhB6vsPNik-3" target="zSc9yGRD9UbhB6vsPNik-23">
          <mxGeometry relative="1" as="geometry" />
        </mxCell>
        <mxCell id="zSc9yGRD9UbhB6vsPNik-2" value="Aggregation" style="edgeLabel;html=1;align=center;verticalAlign=middle;resizable=0;points=[];" vertex="1" connectable="0" parent="zSc9yGRD9UbhB6vsPNik-1">
          <mxGeometry x="-0.2509" y="-2" relative="1" as="geometry">
            <mxPoint x="6" y="-2" as="offset" />
          </mxGeometry>
        </mxCell>
        <mxCell id="zSc9yGRD9UbhB6vsPNik-3" value="" style="rounded=1;whiteSpace=wrap;html=1;" vertex="1" parent="1">
          <mxGeometry x="93" y="598" width="317" height="50" as="geometry" />
        </mxCell>
        <mxCell id="zSc9yGRD9UbhB6vsPNik-4" value="Expla&lt;span style=&quot;background-color: initial;&quot;&gt;nation&lt;/span&gt;&lt;div&gt;&lt;span style=&quot;background-color: initial;&quot;&gt;of image 1&lt;/span&gt;&lt;/div&gt;" style="whiteSpace=wrap;html=1;aspect=fixed;" vertex="1" parent="1">
          <mxGeometry x="105" y="400" width="70" height="70" as="geometry" />
        </mxCell>
        <mxCell id="zSc9yGRD9UbhB6vsPNik-5" value="Expla&lt;span style=&quot;background-color: initial;&quot;&gt;nation&lt;/span&gt;&lt;div&gt;&lt;span style=&quot;background-color: initial;&quot;&gt;of image 1&lt;/span&gt;&lt;/div&gt;" style="whiteSpace=wrap;html=1;aspect=fixed;" vertex="1" parent="1">
          <mxGeometry x="105" y="500" width="71" height="71" as="geometry" />
        </mxCell>
        <mxCell id="zSc9yGRD9UbhB6vsPNik-6" value="Model A:" style="text;html=1;align=center;verticalAlign=middle;resizable=0;points=[];autosize=1;strokeColor=none;fillColor=none;" vertex="1" parent="1">
          <mxGeometry x="20" y="420" width="70" height="30" as="geometry" />
        </mxCell>
        <mxCell id="zSc9yGRD9UbhB6vsPNik-7" value="Model B:" style="text;html=1;align=center;verticalAlign=middle;resizable=0;points=[];autosize=1;strokeColor=none;fillColor=none;" vertex="1" parent="1">
          <mxGeometry x="20" y="520.5" width="70" height="30" as="geometry" />
        </mxCell>
        <mxCell id="zSc9yGRD9UbhB6vsPNik-8" value="Expla&lt;span style=&quot;background-color: initial;&quot;&gt;nation&lt;/span&gt;&lt;div&gt;&lt;span style=&quot;background-color: initial;&quot;&gt;of image 2&lt;/span&gt;&lt;/div&gt;" style="whiteSpace=wrap;html=1;aspect=fixed;" vertex="1" parent="1">
          <mxGeometry x="194" y="400" width="70" height="70" as="geometry" />
        </mxCell>
        <mxCell id="zSc9yGRD9UbhB6vsPNik-9" value="Expla&lt;span style=&quot;background-color: initial;&quot;&gt;nation&lt;/span&gt;&lt;div&gt;&lt;span style=&quot;background-color: initial;&quot;&gt;of image 2&lt;/span&gt;&lt;/div&gt;" style="whiteSpace=wrap;html=1;aspect=fixed;" vertex="1" parent="1">
          <mxGeometry x="194" y="500" width="71" height="71" as="geometry" />
        </mxCell>
        <mxCell id="zSc9yGRD9UbhB6vsPNik-10" value="Expla&lt;span style=&quot;background-color: initial;&quot;&gt;nation&lt;/span&gt;&lt;div&gt;&lt;span style=&quot;background-color: initial;&quot;&gt;of image M&lt;/span&gt;&lt;/div&gt;" style="whiteSpace=wrap;html=1;aspect=fixed;" vertex="1" parent="1">
          <mxGeometry x="334" y="400" width="70" height="70" as="geometry" />
        </mxCell>
        <mxCell id="zSc9yGRD9UbhB6vsPNik-11" value="Expla&lt;span style=&quot;background-color: initial;&quot;&gt;nation&lt;/span&gt;&lt;div&gt;&lt;span style=&quot;background-color: initial;&quot;&gt;of image M&lt;/span&gt;&lt;/div&gt;" style="whiteSpace=wrap;html=1;aspect=fixed;" vertex="1" parent="1">
          <mxGeometry x="334" y="500" width="71" height="71" as="geometry" />
        </mxCell>
        <mxCell id="zSc9yGRD9UbhB6vsPNik-12" value="" style="endArrow=none;dashed=1;html=1;dashPattern=1 3;strokeWidth=2;rounded=0;" edge="1" parent="1">
          <mxGeometry width="50" height="50" relative="1" as="geometry">
            <mxPoint x="270" y="434.8" as="sourcePoint" />
            <mxPoint x="330" y="434.8" as="targetPoint" />
          </mxGeometry>
        </mxCell>
        <mxCell id="zSc9yGRD9UbhB6vsPNik-13" value="" style="endArrow=none;dashed=1;html=1;dashPattern=1 3;strokeWidth=2;rounded=0;" edge="1" parent="1">
          <mxGeometry width="50" height="50" relative="1" as="geometry">
            <mxPoint x="271" y="535.3" as="sourcePoint" />
            <mxPoint x="331" y="535.3" as="targetPoint" />
          </mxGeometry>
        </mxCell>
        <mxCell id="zSc9yGRD9UbhB6vsPNik-14" value="vs" style="text;html=1;align=center;verticalAlign=middle;resizable=0;points=[];autosize=1;strokeColor=none;fillColor=none;" vertex="1" parent="1">
          <mxGeometry x="120" y="468" width="40" height="30" as="geometry" />
        </mxCell>
        <mxCell id="zSc9yGRD9UbhB6vsPNik-15" value="vs" style="text;html=1;align=center;verticalAlign=middle;resizable=0;points=[];autosize=1;strokeColor=none;fillColor=none;" vertex="1" parent="1">
          <mxGeometry x="205" y="468" width="40" height="30" as="geometry" />
        </mxCell>
        <mxCell id="zSc9yGRD9UbhB6vsPNik-16" value="vs" style="text;html=1;align=center;verticalAlign=middle;resizable=0;points=[];autosize=1;strokeColor=none;fillColor=none;" vertex="1" parent="1">
          <mxGeometry x="349.5" y="468" width="40" height="30" as="geometry" />
        </mxCell>
        <mxCell id="zSc9yGRD9UbhB6vsPNik-17" value="0.7" style="rounded=0;whiteSpace=wrap;html=1;" vertex="1" parent="1">
          <mxGeometry x="114" y="612" width="52" height="25" as="geometry" />
        </mxCell>
        <mxCell id="zSc9yGRD9UbhB6vsPNik-18" value="0.4" style="rounded=0;whiteSpace=wrap;html=1;" vertex="1" parent="1">
          <mxGeometry x="204" y="612" width="52" height="25" as="geometry" />
        </mxCell>
        <mxCell id="zSc9yGRD9UbhB6vsPNik-19" value="0.9" style="rounded=0;whiteSpace=wrap;html=1;" vertex="1" parent="1">
          <mxGeometry x="343.5" y="612" width="52" height="25" as="geometry" />
        </mxCell>
        <mxCell id="zSc9yGRD9UbhB6vsPNik-20" value="" style="shape=flexArrow;endArrow=classic;html=1;rounded=0;width=6.466165413533834;endSize=2.801503759398496;endWidth=13.936249073387692;" edge="1" parent="1">
          <mxGeometry width="50" height="50" relative="1" as="geometry">
            <mxPoint x="140" y="575" as="sourcePoint" />
            <mxPoint x="140" y="605" as="targetPoint" />
          </mxGeometry>
        </mxCell>
        <mxCell id="zSc9yGRD9UbhB6vsPNik-21" value="" style="shape=flexArrow;endArrow=classic;html=1;rounded=0;width=6.466165413533834;endSize=2.801503759398496;endWidth=13.936249073387692;" edge="1" parent="1">
          <mxGeometry width="50" height="50" relative="1" as="geometry">
            <mxPoint x="229.8" y="575" as="sourcePoint" />
            <mxPoint x="229.8" y="605" as="targetPoint" />
          </mxGeometry>
        </mxCell>
        <mxCell id="zSc9yGRD9UbhB6vsPNik-22" value="" style="shape=flexArrow;endArrow=classic;html=1;rounded=0;width=6.466165413533834;endSize=2.801503759398496;endWidth=13.936249073387692;" edge="1" parent="1">
          <mxGeometry width="50" height="50" relative="1" as="geometry">
            <mxPoint x="368.8" y="575" as="sourcePoint" />
            <mxPoint x="368.8" y="605" as="targetPoint" />
          </mxGeometry>
        </mxCell>
        <mxCell id="zSc9yGRD9UbhB6vsPNik-23" value="&lt;div&gt;0.2&lt;/div&gt;" style="rounded=1;whiteSpace=wrap;html=1;" vertex="1" parent="1">
          <mxGeometry x="500" y="602.5" width="45" height="41" as="geometry" />
        </mxCell>
        <mxCell id="zSc9yGRD9UbhB6vsPNik-24" value="Similarity for each pair of explanations computed for same image" style="text;html=1;align=center;verticalAlign=middle;whiteSpace=wrap;rounded=0;" vertex="1" parent="1">
          <mxGeometry x="40" y="643.5" width="420" height="30" as="geometry" />
        </mxCell>
        <mxCell id="zSc9yGRD9UbhB6vsPNik-25" value="Dissimilarity&amp;nbsp;&lt;div&gt;&lt;div&gt;of models A and B&lt;/div&gt;&lt;/div&gt;" style="text;html=1;align=center;verticalAlign=middle;resizable=0;points=[];autosize=1;strokeColor=none;fillColor=none;" vertex="1" parent="1">
          <mxGeometry x="460" y="643.5" width="120" height="40" as="geometry" />
        </mxCell>
        <mxCell id="zSc9yGRD9UbhB6vsPNik-26" value="&lt;div&gt;&lt;b style=&quot;background-color: initial;&quot;&gt;&lt;font style=&quot;font-size: 18px;&quot;&gt;Computing dissimilarity between models A and B&lt;/font&gt;&lt;/b&gt;&lt;br&gt;&lt;/div&gt;" style="text;html=1;align=center;verticalAlign=middle;resizable=0;points=[];autosize=1;strokeColor=none;fillColor=none;" vertex="1" parent="1">
          <mxGeometry x="65" y="345" width="450" height="40" as="geometry" />
        </mxCell>
      </root>
    </mxGraphModel>
  </diagram>
</mxfile>
